<mxfile host="app.diagrams.net" agent="Mozilla/5.0 (Windows NT 10.0; Win64; x64) AppleWebKit/537.36 (KHTML, like Gecko) Chrome/132.0.0.0 Safari/537.36 OPR/117.0.0.0" version="26.2.8">
  <diagram name="Strona-1" id="zqlYXyaYmqrs7ChxJYXG">
    <mxGraphModel dx="774" dy="927" grid="1" gridSize="10" guides="1" tooltips="1" connect="1" arrows="1" fold="1" page="1" pageScale="1" pageWidth="827" pageHeight="1169" math="0" shadow="0">
      <root>
        <mxCell id="0" />
        <mxCell id="1" parent="0" />
        <mxCell id="2DJDN4ZhOJznrSzfTAJJ-1" value="Application.cpp&lt;div&gt;(Wczesniej MyForm.cpp)&lt;/div&gt;" style="rounded=0;whiteSpace=wrap;html=1;" vertex="1" parent="1">
          <mxGeometry x="310" y="50" width="150" height="60" as="geometry" />
        </mxCell>
        <mxCell id="2DJDN4ZhOJznrSzfTAJJ-11" style="edgeStyle=orthogonalEdgeStyle;rounded=0;orthogonalLoop=1;jettySize=auto;html=1;" edge="1" parent="1" source="2DJDN4ZhOJznrSzfTAJJ-2" target="2DJDN4ZhOJznrSzfTAJJ-4">
          <mxGeometry relative="1" as="geometry" />
        </mxCell>
        <mxCell id="2DJDN4ZhOJznrSzfTAJJ-12" style="edgeStyle=orthogonalEdgeStyle;rounded=0;orthogonalLoop=1;jettySize=auto;html=1;entryX=0.5;entryY=1;entryDx=0;entryDy=0;" edge="1" parent="1" source="2DJDN4ZhOJznrSzfTAJJ-2" target="2DJDN4ZhOJznrSzfTAJJ-3">
          <mxGeometry relative="1" as="geometry" />
        </mxCell>
        <mxCell id="2DJDN4ZhOJznrSzfTAJJ-2" value="Formularz wysyłkowowy.h" style="rounded=0;whiteSpace=wrap;html=1;" vertex="1" parent="1">
          <mxGeometry x="110" y="300" width="120" height="60" as="geometry" />
        </mxCell>
        <mxCell id="2DJDN4ZhOJznrSzfTAJJ-3" value="Formularz wysyłkowowy.cpp" style="rounded=0;whiteSpace=wrap;html=1;" vertex="1" parent="1">
          <mxGeometry x="50" y="170" width="120" height="60" as="geometry" />
        </mxCell>
        <mxCell id="2DJDN4ZhOJznrSzfTAJJ-10" style="edgeStyle=orthogonalEdgeStyle;rounded=0;orthogonalLoop=1;jettySize=auto;html=1;entryX=0.5;entryY=1;entryDx=0;entryDy=0;" edge="1" parent="1" source="2DJDN4ZhOJznrSzfTAJJ-4" target="2DJDN4ZhOJznrSzfTAJJ-1">
          <mxGeometry relative="1" as="geometry" />
        </mxCell>
        <mxCell id="2DJDN4ZhOJznrSzfTAJJ-4" value="MyForm.h" style="rounded=0;whiteSpace=wrap;html=1;" vertex="1" parent="1">
          <mxGeometry x="180" y="170" width="120" height="60" as="geometry" />
        </mxCell>
        <mxCell id="2DJDN4ZhOJznrSzfTAJJ-6" value="Klasy.h" style="rounded=0;whiteSpace=wrap;html=1;" vertex="1" parent="1">
          <mxGeometry x="550" y="280" width="120" height="60" as="geometry" />
        </mxCell>
        <mxCell id="2DJDN4ZhOJznrSzfTAJJ-7" value="Klasy.cpp" style="rounded=0;whiteSpace=wrap;html=1;" vertex="1" parent="1">
          <mxGeometry x="560" y="360" width="120" height="60" as="geometry" />
        </mxCell>
        <mxCell id="2DJDN4ZhOJznrSzfTAJJ-9" style="edgeStyle=orthogonalEdgeStyle;rounded=0;orthogonalLoop=1;jettySize=auto;html=1;entryX=0.5;entryY=1;entryDx=0;entryDy=0;" edge="1" parent="1" source="2DJDN4ZhOJznrSzfTAJJ-8" target="2DJDN4ZhOJznrSzfTAJJ-1">
          <mxGeometry relative="1" as="geometry" />
        </mxCell>
        <mxCell id="2DJDN4ZhOJznrSzfTAJJ-8" value="Funkcje.cpp" style="rounded=0;whiteSpace=wrap;html=1;" vertex="1" parent="1">
          <mxGeometry x="490" y="170" width="120" height="60" as="geometry" />
        </mxCell>
      </root>
    </mxGraphModel>
  </diagram>
</mxfile>
